<mxfile host="app.diagrams.net" modified="2024-07-14T17:12:15.544Z" agent="Mozilla/5.0 (Windows NT 10.0; Win64; x64; rv:128.0) Gecko/20100101 Firefox/128.0" version="24.6.5" etag="qgdsx_5vtjppbrcY3SkA" type="github">
  <diagram name="Page-1" id="uWea8pb2j-fSXLnf9qL0">
    <mxGraphModel>
      <root>
        <mxCell id="0" />
        <mxCell id="1" parent="0" />
      </root>
    </mxGraphModel>
  </diagram>
</mxfile>
